<?xml version="1.0" encoding="utf-8"?>
<!-- Generator: Adobe Illustrator 19.0.0, SVG Export Plug-In . SVG Version: 6.00 Build 0)  -->
<svg version="1.1" id="图层_1" xmlns="http://www.w3.org/2000/svg" xmlns:xlink="http://www.w3.org/1999/xlink" x="0px" y="0px"
	 viewBox="141.1 172.9 301.5 244.5" style="enable-background:new 141.1 172.9 301.5 244.5;" xml:space="preserve">
<style type="text/css">
	.st0{fill:none;stroke:#FFFFFF;stroke-width:24;stroke-miterlimit:10;}
	.st1{fill:none;stroke:#FFFFFF;stroke-width:9;stroke-miterlimit:10;}
	.st2{display:none;}
	.st3{display:inline;}
	.st4{display:inline;fill:#FFFFFF;}
	.st5{fill:#FFFFFF;}
	.st6{display:none;fill:none;stroke:#FFFFFF;stroke-width:13;stroke-miterlimit:10;}
	.st7{clip-path:url(#XMLID_2_);}
	.st8{clip-path:url(#XMLID_426_);}
</style>
<g id="图层_2">
	<line id="XMLID_6_" class="st0" x1="288.9" y1="407.1" x2="288.9" y2="369.9"/>
	<rect id="XMLID_20_" x="153.6" y="183.5" class="st1" width="280" height="182.8"/>
	<g id="XMLID_8_" class="st2">
		<polyline id="XMLID_16_" class="st3" points="209.8,323.6 265.8,239.6 314.2,303.6 375.8,221.4 338.1,233.7 355.5,230.1 		"/>
		<path id="XMLID_15_" class="st4" d="M209.8,323.6l3.2-5.5l3.2-5.4l6.5-10.8c2.2-3.6,4.3-7.2,6.5-10.8l6.6-10.8
			c4.4-7.2,8.8-14.4,13.3-21.5c4.5-7.1,8.9-14.3,13.4-21.4l2.9-4.6l3.5,4.5l25,31.4l12.4,15.7l6.2,7.9l6.2,7.9h-9
			c2.5-3.4,5.1-6.9,7.6-10.3c2.6-3.4,5.1-6.9,7.7-10.3l7.8-10.2l7.9-10.2l7.9-10.1l8-10.1l8.1-10c2.7-3.3,5.4-6.7,8.1-10l4.1,5.8
			c-6.4,1.7-12.7,3.6-19.1,5.2l-9.6,2.5l-9.6,2.4l-0.8-2.8c2.9-0.4,5.9-0.8,8.8-1.1c2.9-0.4,5.9-0.7,8.8-1c-2.8,0.9-5.7,1.7-8.5,2.6
			c-2.8,0.8-5.7,1.7-8.5,2.5l-0.8-2.8l9.2-3.7l9.2-3.6c6.1-2.5,12.3-4.7,18.5-7.1l10.8-4.2l-6.6,9.9c-2.4,3.6-4.9,7.1-7.3,10.6
			l-7.3,10.6l-7.4,10.5l-7.5,10.5l-7.5,10.4l-7.6,10.4c-2.5,3.5-5.1,6.9-7.7,10.3c-2.5,3.4-5.2,6.8-7.8,10.2l-4.6,6.1l-4.5-6l-6-8.1
			l-5.9-8.1L286,274.6L262.6,242l6.5-0.2c-4.8,6.9-9.7,13.7-14.6,20.6c-4.9,6.9-9.8,13.7-14.7,20.5l-7.4,10.2
			c-2.5,3.4-5,6.8-7.5,10.2l-7.5,10.2l-3.8,5.1L209.8,323.6z"/>
	</g>
	<g id="XMLID_9_">
		<path id="XMLID_19_" class="st5" d="M390.3,220.2l-8.4,11.3c-2.8,3.8-5.6,7.5-8.4,11.3l-8.5,11.3l-8.5,11.2l-8.6,11.2l-8.6,11.1
			c-5.8,7.4-11.5,14.9-17.3,22.2l-3.3,4.1l-3-4.4l-12-17.7l-11.9-17.7c-4-5.9-7.9-11.8-11.8-17.8l-11.6-17.7l6,0.2l-9.2,11.5
			c-3.1,3.8-6.2,7.6-9.3,11.5l-9.3,11.4c-3.1,3.8-6.2,7.6-9.4,11.4l-9.4,11.3l-9.5,11.3c-3.2,3.8-6.4,7.5-9.6,11.2
			c-3.2,3.7-6.4,7.4-9.7,11.1c2.8-4.1,5.6-8.1,8.4-12.1c2.8-4,5.7-8,8.5-12l8.6-12l8.7-11.9c2.9-4,5.8-7.9,8.7-11.9l8.8-11.8
			c2.9-3.9,5.9-7.9,8.8-11.8l8.9-11.8l3.1-4l2.9,4.2l12,17.6c4,5.9,8,11.8,12,17.7l11.9,17.7l11.8,17.8l-6.2-0.3
			c5.9-7.3,11.9-14.5,17.8-21.8l8.9-10.9l9-10.8l9-10.8l9.1-10.7c3-3.6,6.1-7.2,9.2-10.7l9.2-10.7L390.3,220.2z"/>
	</g>
	<g id="XMLID_4_">
		<polygon id="XMLID_27_" class="st5" points="359.6,229.7 389.3,213.9 395.7,210.5 394.1,217.5 387.2,249.4 387.2,216.7 392,220.3 
			359.7,230.1 		"/>
	</g>
	<line id="XMLID_10_" class="st6" x1="227.5" y1="407.1" x2="350" y2="407.1"/>
	<g id="XMLID_7_">
		<g id="XMLID_91_">
			<defs>
				<rect id="XMLID_94_" x="283.5" y="387.7" width="66" height="23.8"/>
			</defs>
			<clipPath id="XMLID_2_">
				<use xlink:href="#XMLID_94_"  style="overflow:visible;"/>
			</clipPath>
			<g id="XMLID_5_" class="st7">
				<path id="XMLID_24_" class="st5" d="M285.7,404.8c0,0,3.4,0.2,8.4,0.5c5.1,0.3,11.8,0.6,18.5,1c6.7,0.3,13.5,0.7,18.5,0.9
					c2.5,0.1,4.6,0.2,6.1,0.3c0.7,0,1.3,0.1,1.7,0.1c0.4,0.1,0.6-0.2,0.6-0.2v8c0,0-0.2-0.3-0.6-0.2c-0.4,0-1,0-1.7,0.1
					c-1.5,0.1-3.6,0.2-6.1,0.3c-5.1,0.3-11.8,0.6-18.5,0.9s-13.5,0.7-18.5,1c-5.1,0.3-8.4,0.5-8.4,0.5V404.8z"/>
			</g>
		</g>
	</g>
	<g id="XMLID_11_">
		<g id="XMLID_86_">
			<defs>
				<rect id="XMLID_89_" x="225.5" y="387.7" width="66" height="23.8"/>
			</defs>
			<clipPath id="XMLID_426_">
				<use xlink:href="#XMLID_89_"  style="overflow:visible;"/>
			</clipPath>
			<g id="XMLID_13_" class="st8">
				<path id="XMLID_31_" class="st5" d="M289.3,417.8c0,0-3.4-0.2-8.4-0.5c-5.1-0.3-11.8-0.6-18.5-1c-6.7-0.3-13.5-0.7-18.5-0.9
					c-2.5-0.1-4.6-0.2-6.1-0.3c-0.7,0-1.3-0.1-1.7-0.1c-0.4-0.1-0.6,0.2-0.6,0.2v-8c0,0,0.2,0.3,0.6,0.2c0.4,0,1,0,1.7-0.1
					c1.5-0.1,3.6-0.2,6.1-0.3c5.1-0.3,11.8-0.6,18.5-0.9c6.7-0.3,13.5-0.7,18.5-1c5.1-0.3,8.4-0.5,8.4-0.5V417.8z"/>
			</g>
		</g>
	</g>
</g>
</svg>
